<svg width="52" height="26" viewBox="0 0 52 26" fill="none" xmlns="http://www.w3.org/2000/svg">
<path d="M48.6679 1C50.1483 1 51.3358 2.18754 51.3358 3.65164C51.3358 5.132 50.1483 6.31954 48.6679 6.31954C47.1875 6.31954 46 5.132 46 3.65164C46 2.18754 47.1875 1 48.6679 1ZM48.6679 5.83151C49.8717 5.83151 50.8478 4.85544 50.8478 3.65164C50.8478 2.46409 49.8717 1.48803 48.6679 1.48803C47.4804 1.48803 46.5043 2.46409 46.5043 3.65164C46.5043 4.85544 47.4804 5.83151 48.6679 5.83151ZM49.5626 4.05833L50.2133 4.96932H48.9933L48.6191 4.221H48.4402V4.96932H47.4316V2.13874H48.7655C49.5789 2.13874 50.1157 2.5617 50.1157 3.17987C50.1157 3.60283 49.9042 3.89565 49.5626 4.05833ZM48.7492 2.90332H48.4402V3.50523H48.7492C48.9607 3.50523 49.1071 3.39135 49.1071 3.19614C49.1071 3.03346 48.9607 2.90332 48.7492 2.90332Z" fill="#292929"/>
<path d="M46.7891 25.3211C45.7509 25.3211 44.8252 25.1147 44.0121 24.7019C43.2116 24.2766 42.5861 23.7012 42.1358 22.9757C41.6855 22.2377 41.4603 21.4059 41.4603 20.4802C41.4603 19.5295 41.6917 18.6852 42.1546 17.9471C42.6174 17.2091 43.2428 16.64 44.0309 16.2397C44.819 15.8394 45.6946 15.6393 46.6578 15.6393C47.5834 15.6393 48.3715 15.8456 49.022 16.2584C49.6849 16.6587 50.179 17.2091 50.5043 17.9096C50.8295 18.5976 50.9921 19.3732 50.9921 20.2363C50.9921 20.4614 50.9796 20.624 50.9546 20.7241L45.3256 21.4559C45.4757 21.8937 45.7196 22.2127 46.0573 22.4128C46.3951 22.6005 46.8392 22.6943 47.3895 22.6943C48.2401 22.6943 49.1595 22.4754 50.1478 22.0376L50.6168 24.5518C49.4535 25.0647 48.1776 25.3211 46.7891 25.3211ZM48.0838 19.0917C47.8836 18.3036 47.4083 17.9096 46.6578 17.9096C46.2075 17.9096 45.8509 18.0785 45.5883 18.4162C45.3256 18.754 45.188 19.1918 45.1755 19.7297L48.0838 19.0917Z" fill="#292929"/>
<path d="M36.8838 25.3211C35.5704 25.3211 34.4195 25.1272 33.4313 24.7395L33.8629 22.5066C34.7635 22.8319 35.6392 22.9945 36.4898 22.9945C37.1152 22.9945 37.4279 22.8194 37.4279 22.4691C37.4279 22.294 37.3341 22.1501 37.1465 22.0376C36.9714 21.925 36.6336 21.8249 36.1333 21.7373C35.095 21.5372 34.3445 21.1995 33.8817 20.7241C33.4313 20.2488 33.2062 19.5733 33.2062 18.6977C33.2562 17.7095 33.6502 16.9527 34.3883 16.4273C35.1263 15.9019 36.1333 15.6393 37.4092 15.6393C38.0596 15.6393 38.6163 15.683 39.0791 15.7706C39.5544 15.8456 39.986 15.977 40.3738 16.1646L39.9797 18.3975C39.617 18.2599 39.2167 18.1535 38.7789 18.0785C38.3536 18.0034 37.9971 17.9659 37.7094 17.9659C37.2841 17.9659 36.9901 18.0097 36.8275 18.0973C36.6649 18.1848 36.5836 18.3036 36.5836 18.4538C36.5836 18.7289 36.8963 18.9228 37.5217 19.0354C38.6601 19.2356 39.5107 19.5858 40.0736 20.0862C40.6365 20.5865 40.9179 21.2683 40.9179 22.1314C40.9179 23.1196 40.5677 23.9014 39.8672 24.4768C39.1792 25.0397 38.1847 25.3211 36.8838 25.3211Z" fill="#292929"/>
<path d="M21.1313 15.9019H24.9028V17.8158C25.6283 16.3648 26.7791 15.6393 28.3552 15.6393C29.5561 15.6393 30.4943 16.0708 31.1697 16.9339C31.8577 17.7845 32.2017 18.9666 32.2017 20.4802V25.171H28.2614V20.0862C28.2614 19.5483 28.1426 19.1355 27.9049 18.8478C27.6798 18.5601 27.3608 18.4162 26.948 18.4162C26.6478 18.4162 26.3538 18.5163 26.0661 18.7164C25.7784 18.9041 25.5407 19.1793 25.3531 19.542C25.178 19.9048 25.0904 20.3176 25.0904 20.7804V25.171H21.1313V15.9019Z" fill="#292929"/>
<path d="M15.9404 25.3211C14.9021 25.3211 13.9765 25.1147 13.1634 24.7019C12.3628 24.2766 11.7374 23.7012 11.2871 22.9757C10.8367 22.2377 10.6116 21.4059 10.6116 20.4802C10.6116 19.5295 10.843 18.6852 11.3058 17.9471C11.7686 17.2091 12.3941 16.64 13.1822 16.2397C13.9702 15.8394 14.8458 15.6393 15.809 15.6393C16.7347 15.6393 17.5227 15.8456 18.1732 16.2584C18.8362 16.6587 19.3303 17.2091 19.6555 17.9096C19.9807 18.5976 20.1433 19.3732 20.1433 20.2363C20.1433 20.4614 20.1308 20.624 20.1058 20.7241L14.4768 21.4559C14.6269 21.8937 14.8709 22.2127 15.2086 22.4128C15.5463 22.6005 15.9904 22.6943 16.5408 22.6943C17.3914 22.6943 18.3108 22.4754 19.299 22.0376L19.7681 24.5518C18.6048 25.0647 17.3288 25.3211 15.9404 25.3211ZM17.235 19.0917C17.0349 18.3036 16.5596 17.9096 15.809 17.9096C15.3587 17.9096 15.0022 18.0785 14.7395 18.4162C14.4768 18.754 14.3392 19.1918 14.3267 19.7297L17.235 19.0917Z" fill="#292929"/>
<path d="M4.62988 25.4712C2.86612 25.4712 1.37757 25.146 0.164203 24.4955L1.10237 21.5872C2.39079 22.05 3.5416 22.2815 4.55482 22.2815C5.10522 22.2815 5.5055 22.2189 5.75568 22.0938C6.01837 21.9562 6.14971 21.7561 6.14971 21.4934C6.14971 21.3183 6.08091 21.1682 5.94331 21.0431C5.80572 20.9055 5.53052 20.7554 5.11773 20.5928C4.70493 20.4301 4.08574 20.23 3.26015 19.9923C2.24693 19.6921 1.45887 19.2043 0.895974 18.5288C0.333073 17.8408 4.23214e-05 16.9706 4.23214e-05 16.0825C4.23214e-05 14.7065 0.272068 13.5581 1.17271 12.8576C2.08586 12.1446 3.54161 11.9804 5.0802 11.9804C5.88077 11.9804 6.66883 12.0679 7.44438 12.2431C8.21993 12.4057 8.78126 12.8255 9.38169 13.1507L8.49513 15.8081C7.79463 15.5704 7.18169 15.4016 6.65632 15.3015C6.14346 15.1889 5.6431 15.1326 5.15525 15.1326C4.32967 15.1326 3.91687 15.3578 3.91687 15.8081C3.91687 16.0333 4.04821 16.2271 4.3109 16.3898C4.5861 16.5399 5.14274 16.7338 5.98084 16.9714C7.29427 17.3217 8.28873 17.8596 8.96421 18.5851C9.63969 19.2981 9.97743 20.1549 9.97743 21.1557C9.97743 22.5441 9.52711 23.6136 8.62647 24.3642C7.72583 25.1022 6.39363 25.4712 4.62988 25.4712Z" fill="#292929"/>
<path d="M32.2492 14.7668C31.1859 14.7668 30.3603 14.4353 29.7724 13.7723C29.197 13.0968 28.9093 12.1774 28.9093 11.0141V2.25162L32.8684 1.66995V10.7326C32.8684 11.0829 32.9497 11.3393 33.1123 11.5019C33.2874 11.6521 33.5876 11.7271 34.0129 11.7271C34.3257 11.7271 34.6321 11.6521 34.9323 11.5019L35.0637 14.1288C34.2256 14.5541 33.2874 14.7668 32.2492 14.7668Z" fill="#292929"/>
<path d="M25.7715 14.7668C24.7208 14.7668 23.9015 14.429 23.3135 13.7535C22.7256 13.078 22.4317 12.1586 22.4317 10.9953V5.21621H26.4095V10.8264C26.4095 11.1142 26.4846 11.3393 26.6347 11.5019C26.7973 11.652 27.0037 11.7271 27.2539 11.7271C27.504 11.7271 27.7605 11.652 28.0231 11.5019L28.2295 14.11C27.9543 14.3227 27.5916 14.4853 27.1413 14.5979C26.7035 14.7105 26.2469 14.7668 25.7715 14.7668ZM24.4206 3.80896C23.8327 3.80896 23.3323 3.62758 22.9195 3.26482C22.5192 2.88955 22.3191 2.43298 22.3191 1.8951C22.3191 1.35722 22.5317 0.906895 22.957 0.544137C23.3823 0.181379 23.8702 0 24.4206 0C24.996 0 25.4901 0.187634 25.9029 0.562901C26.3282 0.938167 26.5408 1.38223 26.5408 1.8951C26.5408 2.44549 26.3282 2.90206 25.9029 3.26482C25.4776 3.62758 24.9835 3.80896 24.4206 3.80896Z" fill="#292929"/>
<path d="M16.0154 14.7668C14.9647 14.7668 14.0265 14.5604 13.2009 14.1476C12.3878 13.7348 11.7499 13.1656 11.2871 12.4401C10.8367 11.7021 10.6116 10.8577 10.6116 9.90705C10.6116 8.95637 10.843 8.11828 11.3058 7.39276C11.7686 6.65474 12.4066 6.08558 13.2197 5.6853C14.0453 5.28501 14.9834 5.08487 16.0342 5.08487C17.0974 5.08487 18.0356 5.29127 18.8487 5.70406C19.6743 6.10434 20.3122 6.66724 20.7625 7.39276C21.2129 8.11828 21.438 8.95637 21.438 9.90705C21.438 10.8702 21.2066 11.7208 20.7438 12.4589C20.2935 13.1844 19.6555 13.7535 18.8299 14.1663C18.0168 14.5666 17.0787 14.7668 16.0154 14.7668ZM16.0529 11.9523C16.5658 11.9523 16.9849 11.7646 17.3101 11.3894C17.6478 11.0016 17.8167 10.5075 17.8167 9.90705C17.8167 9.30662 17.6478 8.81877 17.3101 8.44351C16.9849 8.05573 16.5658 7.86184 16.0529 7.86184C15.5401 7.86184 15.1148 8.05573 14.777 8.44351C14.4518 8.81877 14.2892 9.30662 14.2892 9.90705C14.2892 10.5075 14.4518 11.0016 14.777 11.3894C15.1148 11.7646 15.5401 11.9523 16.0529 11.9523Z" fill="#292929"/>
<path d="M4.63697 15.149C2.87322 15.149 0.64507 13.6785 0.351893 13.9716L1.10946 11.265C2.39788 11.7279 3.5487 11.9593 4.56192 11.9593C5.11231 11.9593 5.51259 11.8967 5.76277 11.7716C6.02546 11.634 6.1568 11.4339 6.1568 11.1712C6.1568 10.9961 6.088 10.846 5.95041 10.7209C5.81281 10.5833 5.53761 10.4332 5.12482 10.2706C4.71202 10.108 4.09283 9.90782 3.26725 9.67015C2.25403 9.36994 1.46597 8.88209 0.903066 8.20661C0.340166 7.51862 0.0587158 6.73056 0.0587158 5.84243C0.0587158 4.46645 0.509036 3.42821 1.40968 2.72771C2.32283 2.01471 3.5487 1.6582 5.08729 1.6582C5.88786 1.6582 6.67592 1.74577 7.45147 1.92089C8.22702 2.0835 8.91501 2.32743 9.51544 2.65266L8.50222 5.48592C7.80172 5.24826 7.18879 5.07939 6.66341 4.97931C6.15055 4.86673 5.65019 4.81044 5.16234 4.81044C4.33676 4.81044 3.92396 5.0356 3.92396 5.48592C3.92396 5.71108 4.05531 5.90497 4.31799 6.06759C4.59319 6.21769 5.14984 6.41158 5.98793 6.64925C7.30137 6.9995 8.29582 7.53738 8.9713 8.2629C9.64678 8.97591 9.98452 9.83277 9.98452 10.8335C9.98452 12.222 9.5342 13.2915 8.63356 14.042C7.73292 14.78 6.40073 15.149 4.63697 15.149Z" fill="#292929"/>
<path d="M41.0877 3.1651H40.4769V7.48779H41.0877V3.1651Z" fill="#87B272"/>
<path d="M42.72 3.49635C42.2581 4.22416 41.4678 4.64797 40.5601 4.74758H40.5591C40.2622 3.88398 40.3087 2.98796 40.771 2.25968C41.2329 1.5314 42.0237 1.10759 42.9319 1.00845C43.2289 1.87252 43.1824 2.76807 42.72 3.49635Z" fill="#87B272"/>
<path opacity="0.1" d="M42.72 3.49637C42.2581 4.22418 41.4678 4.64799 40.56 4.7476H40.5596L42.9319 1.00894C43.2288 1.87301 43.1823 2.76856 42.72 3.49684V3.49637Z" fill="#526B45"/>
<path d="M40.563 2.26674C41.0197 2.99784 41.0601 3.89338 40.757 4.7551V4.75604C39.8492 4.65033 39.0618 4.22088 38.6051 3.48931C38.1484 2.75774 38.108 1.86172 38.411 1C39.3183 1.10572 40.1058 1.53517 40.5625 2.26674H40.563Z" fill="#87B272"/>
<path opacity="0.1" d="M40.563 2.26679C41.0197 2.99788 41.0601 3.89343 40.757 4.75515L38.4115 1.00052C39.3188 1.10624 40.1063 1.53522 40.563 2.26679Z" fill="#526B45"/>
<path d="M37.7301 7.91638L37.748 8.23213L38.0599 13.8385C38.0698 14.0189 38.2178 14.1603 38.3968 14.1603H43.4253C43.6043 14.1603 43.7523 14.0194 43.7621 13.8385L44.0741 8.23213L44.092 7.91638H37.7301ZM38.8606 9.61304C39.0847 9.61304 39.0847 9.96402 38.8606 9.96402C38.6365 9.96402 38.6369 9.61304 38.8606 9.61304ZM39.0476 10.8074C39.0354 10.814 39.0222 10.8187 39.0076 10.822C39.0025 10.8234 38.9968 10.8239 38.9912 10.8243C38.9837 10.8257 38.9757 10.8262 38.9677 10.8262C38.9531 10.8262 38.9395 10.8248 38.9268 10.822C38.8192 10.7985 38.7802 10.6829 38.8084 10.5918C38.8282 10.5274 38.8813 10.4757 38.9672 10.4757C38.9945 10.4757 39.0189 10.4809 39.0396 10.4903C39.1646 10.5462 39.1669 10.7463 39.0471 10.8079L39.0476 10.8074ZM40.6954 12.1179C40.6921 12.1179 40.6883 12.1183 40.685 12.1183C40.6817 12.1183 40.6789 12.1183 40.6761 12.1183C40.5272 12.1183 40.4774 11.9623 40.5272 11.8585C40.5521 11.8068 40.6014 11.7678 40.6761 11.7678C40.6794 11.7678 40.6822 11.7678 40.685 11.7678C40.7306 11.7697 40.7668 11.7866 40.7926 11.8124C40.81 11.8294 40.8232 11.8505 40.8316 11.8731C40.8688 11.9717 40.8232 12.1047 40.6958 12.1174L40.6954 12.1179Z" fill="#ED976B"/>
<path d="M44.7527 6.72335V7.7406C44.7527 7.83739 44.6747 7.91585 44.5788 7.91585H37.1738C37.078 7.91585 37 7.83739 37 7.7406V6.72335C37 6.62656 37.078 6.5481 37.1738 6.5481H44.5788C44.6747 6.5481 44.7527 6.62656 44.7527 6.72335Z" fill="#ED976B"/>
<path d="M44.092 7.91638L44.0741 8.23166H37.748L37.7301 7.91638H44.092Z" fill="#C16E49"/>
<path opacity="0.1" d="M44.7526 6.72341V7.74066C44.7526 7.83745 44.6746 7.91591 44.5788 7.91591H44.092L44.0742 8.23166L43.7622 13.838C43.7523 14.0184 43.6043 14.1599 43.4253 14.1599H40.9285V6.54816H44.5788C44.6746 6.54816 44.7526 6.62662 44.7526 6.72341Z" fill="#ED976B"/>
<path d="M38.9141 9.85688C38.9813 9.85688 38.9818 9.75211 38.9141 9.75211C38.8465 9.75211 38.8465 9.85688 38.9141 9.85688Z" fill="#ED976B"/>
<path d="M38.7595 9.6699V9.75682C38.7595 9.77045 38.7652 9.78454 38.775 9.79394C38.7849 9.80333 38.799 9.80991 38.8121 9.80944C38.8253 9.80897 38.8399 9.80427 38.8493 9.79394C38.8587 9.7836 38.8648 9.77092 38.8648 9.75682V9.6699C38.8648 9.65627 38.8591 9.64217 38.8493 9.63278C38.8394 9.62338 38.8253 9.6168 38.8121 9.61727C38.799 9.61774 38.7844 9.62244 38.775 9.63278C38.7656 9.64311 38.7595 9.6558 38.7595 9.6699Z" fill="#ED976B"/>
<path d="M38.7948 9.63183C38.715 9.62337 38.6614 9.70701 38.6647 9.77843C38.668 9.84984 38.699 9.92878 38.7591 9.96966C38.8146 10.0072 38.893 10.0044 38.9494 9.9706C39.0058 9.93677 39.0443 9.87522 39.0547 9.81085C39.0655 9.74272 39.0504 9.66707 38.9974 9.61867C38.9475 9.5731 38.8681 9.55195 38.8066 9.58766C38.7399 9.62666 38.7385 9.72063 38.746 9.78782C38.7502 9.824 38.7587 9.863 38.7887 9.88743C38.8249 9.91703 38.8757 9.92126 38.9114 9.88743C38.9405 9.86018 38.9569 9.8146 38.9654 9.77655C38.9701 9.75634 38.9729 9.7352 38.9734 9.71405C38.9739 9.69902 38.9748 9.68163 38.9663 9.66848C38.9579 9.65532 38.9443 9.64546 38.9292 9.64076C38.8893 9.6276 38.8446 9.65015 38.8249 9.68586C38.8005 9.73003 38.8193 9.77937 38.8418 9.81977C38.8555 9.84374 38.8898 9.8536 38.9137 9.83857C38.9377 9.82353 38.9471 9.79252 38.9325 9.76668C38.9297 9.76198 38.9273 9.75728 38.9245 9.75258C38.9245 9.75258 38.9184 9.73802 38.9212 9.74507C38.9212 9.7446 38.917 9.72862 38.9184 9.73849C38.9179 9.73473 38.9203 9.72204 38.9184 9.73285L38.9161 9.73849C38.9189 9.73379 38.9184 9.73426 38.9142 9.7399C38.9231 9.73473 38.9048 9.74366 38.9151 9.73896L38.9095 9.74131C38.9142 9.7399 38.9142 9.74037 38.9095 9.74131C38.9057 9.74225 38.9024 9.74225 38.8987 9.74131C38.8916 9.73802 38.8907 9.73802 38.8954 9.74131L38.8696 9.6962C38.8696 9.70701 38.8696 9.71781 38.8686 9.72862C38.8677 9.74554 38.871 9.71969 38.8677 9.73614C38.8667 9.74131 38.8658 9.74694 38.8644 9.75211C38.8587 9.77561 38.8545 9.78735 38.8442 9.80521L38.8418 9.80944C38.8385 9.8146 38.8385 9.81507 38.8418 9.81085L38.8385 9.81413C38.8428 9.80944 38.8475 9.80756 38.8526 9.80756H38.8555C38.8493 9.80756 38.8498 9.80756 38.8569 9.80756L38.8611 9.80991C38.8559 9.80662 38.8559 9.80709 38.8611 9.81085L38.8578 9.80756C38.8611 9.81225 38.8611 9.81226 38.8578 9.80709C38.8512 9.79534 38.8587 9.81554 38.8559 9.80239C38.855 9.79769 38.8536 9.79299 38.8526 9.78829C38.8498 9.77655 38.8526 9.79722 38.8517 9.78218C38.8498 9.75869 38.8489 9.7352 38.8512 9.71124C38.8512 9.70795 38.8517 9.70419 38.8522 9.7009C38.8508 9.71359 38.8526 9.69902 38.8531 9.69714C38.854 9.69291 38.8555 9.68868 38.8569 9.68398C38.8587 9.67835 38.8587 9.67835 38.8569 9.68398C38.8583 9.68163 38.8597 9.67881 38.8611 9.67647C38.8536 9.68774 38.8677 9.67224 38.8573 9.67975C38.8597 9.67788 38.8625 9.67647 38.8653 9.67506C38.855 9.68022 38.8686 9.67506 38.87 9.67412C38.8822 9.66989 38.8606 9.67318 38.8733 9.67365C38.8775 9.67365 38.8822 9.67365 38.8865 9.67365C38.9001 9.67365 38.8766 9.67083 38.8898 9.67412C38.8926 9.67506 38.8954 9.67553 38.8982 9.67647C38.901 9.67741 38.9039 9.67835 38.9067 9.67929C38.901 9.67694 38.901 9.67694 38.9067 9.67929C38.9104 9.68164 38.9147 9.68351 38.9184 9.68586C38.9203 9.6868 38.9306 9.6962 38.9222 9.68821C38.9278 9.69338 38.933 9.69855 38.9377 9.70419C38.9302 9.69526 38.9391 9.70701 38.94 9.70842C38.9424 9.71265 38.9447 9.71687 38.9471 9.7211C38.9537 9.73379 38.9457 9.71264 38.949 9.72674C38.9504 9.73285 38.9522 9.73943 38.9541 9.74553C38.9579 9.7601 38.9541 9.7399 38.9546 9.74836C38.9546 9.75258 38.9555 9.75634 38.9555 9.76057C38.9555 9.76527 38.9555 9.77044 38.9555 9.77514C38.9555 9.77608 38.9541 9.79252 38.9555 9.78077C38.9541 9.79017 38.9518 9.80004 38.949 9.80944C38.948 9.81226 38.9471 9.81507 38.9461 9.81789C38.9438 9.82353 38.9438 9.82353 38.9461 9.81789C38.9447 9.82071 38.9438 9.82353 38.9424 9.82635C38.9382 9.83481 38.9335 9.84233 38.9283 9.84984C38.9208 9.86159 38.9349 9.84327 38.9255 9.8536C38.9236 9.85595 38.9212 9.8583 38.9194 9.86018C38.9161 9.86347 38.9128 9.86629 38.9095 9.86958C38.8996 9.87944 38.9175 9.86535 38.9057 9.8724C38.902 9.87475 38.8982 9.87756 38.8945 9.87944C38.8916 9.88085 38.8893 9.88226 38.8865 9.88367C38.8921 9.88132 38.8921 9.88132 38.8865 9.88367C38.8789 9.88602 38.8719 9.8879 38.8644 9.88931C38.8766 9.88696 38.8625 9.88931 38.8602 9.88931C38.8555 9.88931 38.8512 9.88931 38.8465 9.88931C38.8324 9.88931 38.8559 9.89213 38.8428 9.88884C38.84 9.8879 38.8371 9.88743 38.8338 9.88649C38.832 9.88602 38.8188 9.88038 38.8296 9.88555C38.824 9.88273 38.8193 9.87991 38.8141 9.87663C38.8235 9.88273 38.8118 9.87428 38.8104 9.87287C38.808 9.87052 38.8057 9.86817 38.8038 9.86582C38.8066 9.87005 38.8066 9.86958 38.8028 9.86488C38.7972 9.85642 38.7925 9.84796 38.7883 9.83904C38.7817 9.82494 38.7906 9.84796 38.7859 9.83293C38.784 9.82635 38.7812 9.82024 38.7793 9.81366C38.7761 9.80286 38.7732 9.79205 38.7718 9.78124C38.7732 9.79111 38.7718 9.77326 38.7718 9.77326C38.7718 9.7695 38.7718 9.76574 38.7718 9.76245C38.7723 9.75587 38.7723 9.7554 38.7718 9.7601C38.7728 9.75493 38.7742 9.75023 38.7761 9.74553C38.7723 9.75634 38.7775 9.7446 38.7784 9.74272C38.7845 9.73238 38.7718 9.74741 38.7812 9.7399C38.7831 9.73802 38.7854 9.73567 38.7878 9.73426C38.7831 9.73802 38.7826 9.73849 38.7878 9.7352L38.7916 9.73332C38.7854 9.73567 38.785 9.73614 38.7906 9.73426C38.7967 9.73285 38.7963 9.73332 38.7892 9.73426C38.792 9.73426 38.7948 9.73426 38.7977 9.73473C38.8249 9.73755 38.8512 9.70842 38.8498 9.68257C38.8484 9.65156 38.8268 9.63324 38.7977 9.63042L38.7948 9.63183Z" fill="#ED976B"/>
<path d="M38.9645 10.682C38.9913 10.7139 39.0223 10.7407 39.0561 10.7646C39.0815 10.7825 39.128 10.7656 39.1332 10.7332C39.143 10.6669 39.1524 10.595 39.1285 10.5307C39.1017 10.4592 39.0415 10.4132 38.9659 10.4066C38.8902 10.4 38.8245 10.4404 38.7869 10.5015C38.7436 10.5715 38.7516 10.6533 38.7831 10.7256C38.8122 10.7928 38.8625 10.8563 38.9339 10.8816C39.0002 10.9051 39.0749 10.8751 39.1078 10.8135C39.1369 10.7595 39.1374 10.6937 39.1238 10.635C39.1101 10.5762 39.0735 10.5067 39.0143 10.4804C38.933 10.4437 38.8498 10.4959 38.8278 10.5781C38.8043 10.6646 38.8555 10.7426 38.91 10.8046C38.9391 10.8379 39.0025 10.8121 38.9993 10.7675C38.9941 10.697 38.9917 10.627 38.9917 10.5565L38.9128 10.6016C38.9175 10.6049 38.9222 10.6096 38.9292 10.6176C38.9316 10.6204 38.9316 10.6204 38.9297 10.6176L38.933 10.6223C38.9363 10.627 38.9391 10.6317 38.9419 10.6368C38.9509 10.6528 38.9551 10.6674 38.9593 10.689C38.9607 10.6956 38.9617 10.704 38.9621 10.7139C38.9626 10.728 38.9626 10.7416 38.9621 10.7557C38.9607 10.7787 38.9579 10.8022 38.9551 10.8253L39.0425 10.8022C39.0397 10.7999 39.0373 10.7975 39.0345 10.7952C39.0242 10.7858 39.0354 10.7975 39.0312 10.7914C39.0293 10.7886 39.0274 10.7853 39.0256 10.782C39.0213 10.7745 39.0279 10.7919 39.0237 10.7773C39.0227 10.774 39.0218 10.7703 39.0209 10.767C39.0199 10.7637 39.0199 10.7595 39.0209 10.7651C39.0209 10.7609 39.0209 10.7562 39.0209 10.752C39.0213 10.743 39.018 10.7632 39.0218 10.7473C39.0279 10.7195 39.0133 10.6904 38.9852 10.6829C38.9588 10.6758 38.9269 10.6918 38.9208 10.7195C38.9081 10.7764 38.9241 10.8379 38.9687 10.8765C38.9833 10.8892 39.0007 10.8953 39.0195 10.8901C39.0354 10.8859 39.0538 10.8708 39.0561 10.8534C39.065 10.7877 39.074 10.7219 39.0599 10.6556C39.0472 10.5969 39.0152 10.5462 38.9659 10.5114C38.9325 10.4879 38.887 10.5194 38.887 10.5565C38.887 10.627 38.8893 10.6975 38.8945 10.7675L38.9837 10.7303C38.9668 10.7111 38.9537 10.6951 38.9405 10.6716C38.9344 10.6603 38.9325 10.6561 38.9292 10.6448C38.9283 10.6411 38.9274 10.6368 38.9264 10.6331C38.9264 10.6331 38.925 10.6232 38.9255 10.6289C38.9255 10.6336 38.9255 10.6256 38.9255 10.6256C38.9255 10.6223 38.9255 10.619 38.9255 10.6157C38.9255 10.6063 38.9236 10.619 38.9264 10.6105C38.9278 10.6058 38.9288 10.6011 38.9307 10.5964C38.9278 10.6049 38.933 10.5917 38.9344 10.5894C38.9354 10.5875 38.9368 10.5852 38.9382 10.5833C38.9354 10.5875 38.9358 10.5856 38.9386 10.5828C38.941 10.5805 38.949 10.5734 38.9419 10.5786C38.9457 10.5758 38.9494 10.5734 38.9537 10.5715C38.9452 10.5753 38.9551 10.5715 38.9588 10.5715C38.9476 10.5734 38.9711 10.5748 38.9593 10.5715C38.9626 10.5725 38.9725 10.5758 38.9645 10.572C38.9687 10.5739 38.9729 10.5767 38.9767 10.5791C38.9696 10.5748 38.979 10.5809 38.9809 10.5833C38.9833 10.5856 38.9856 10.588 38.988 10.5903C38.9899 10.5922 38.9927 10.596 38.9894 10.5917C38.996 10.5997 39.0011 10.6091 39.0058 10.6185C39.0068 10.6204 39.0124 10.6321 39.0096 10.6251C39.0124 10.6312 39.0148 10.6378 39.0166 10.6444C39.0195 10.6533 39.0218 10.6627 39.0237 10.6716C39.0242 10.6749 39.026 10.6857 39.0246 10.6763C39.0256 10.6824 39.026 10.689 39.026 10.6956C39.026 10.705 39.026 10.7144 39.026 10.7242C39.026 10.7346 39.0274 10.7191 39.026 10.7289C39.0251 10.7341 39.0242 10.7393 39.0227 10.7444C39.0213 10.7496 39.0199 10.7543 39.018 10.759C39.0213 10.7506 39.018 10.759 39.0162 10.7623C39.0143 10.7656 39.0119 10.7698 39.0091 10.7731C39.0152 10.7651 39.0077 10.7736 39.0049 10.7764C39.0007 10.7806 39.0068 10.7755 39.0072 10.775C39.0049 10.7769 39.0025 10.7783 39.0002 10.7797C38.9974 10.7811 38.9884 10.7839 38.9955 10.782C38.9931 10.783 38.9805 10.7853 38.9884 10.7844C38.9856 10.7844 38.9833 10.7844 38.9805 10.7844C38.9795 10.7844 38.9696 10.7834 38.9743 10.7844C38.9687 10.7834 38.9621 10.7811 38.9537 10.7764C38.949 10.7736 38.9443 10.7708 38.9396 10.7675C38.9405 10.7679 38.9438 10.7708 38.9386 10.767C38.9358 10.7646 38.9325 10.7618 38.9297 10.7595C38.9109 10.7421 38.9006 10.7285 38.8884 10.7054C38.8761 10.6824 38.8653 10.6575 38.8611 10.6307C38.8597 10.6218 38.8592 10.6077 38.8606 10.5964C38.8602 10.604 38.8616 10.5913 38.8621 10.5889C38.8635 10.5828 38.8653 10.5767 38.8677 10.5706C38.8677 10.5697 38.87 10.5645 38.8677 10.5706C38.8686 10.5682 38.87 10.5659 38.8714 10.5635C38.8738 10.5588 38.8766 10.5542 38.8799 10.5495C38.8804 10.5485 38.887 10.5401 38.8837 10.5438C38.8808 10.5476 38.8865 10.5405 38.8865 10.541C38.8907 10.5368 38.8954 10.5321 38.9001 10.5278C38.9011 10.5269 38.9048 10.5236 38.9001 10.5278C38.9025 10.5264 38.9043 10.525 38.9067 10.5236C38.909 10.5222 38.9189 10.5166 38.917 10.5175C38.9128 10.5194 38.9203 10.5161 38.9203 10.5161C38.9236 10.5152 38.9269 10.5137 38.9302 10.5133C38.9325 10.5128 38.9354 10.5123 38.9377 10.5114C38.9462 10.5095 38.9307 10.5114 38.9391 10.5114C38.9452 10.5109 38.9513 10.5114 38.9574 10.5114C38.9574 10.5114 38.9664 10.5119 38.9607 10.5114C38.9556 10.5109 38.9654 10.5123 38.9668 10.5123C38.9734 10.5137 38.9805 10.5156 38.9866 10.518C38.9922 10.5203 38.9866 10.518 38.9861 10.518C38.9894 10.5194 38.9922 10.5213 38.995 10.5227C38.9974 10.5241 38.9993 10.5255 39.0016 10.5269C39.0086 10.5316 38.9969 10.5227 39.0035 10.5283C39.0082 10.5325 39.0124 10.5368 39.0166 10.5415C39.0124 10.5368 39.0223 10.5504 39.0237 10.5527C39.0251 10.5551 39.026 10.5574 39.0274 10.5598C39.0312 10.5673 39.0256 10.5537 39.0284 10.5617C39.0317 10.5711 39.0364 10.5889 39.0368 10.5936C39.0359 10.588 39.0373 10.5993 39.0373 10.6002C39.0373 10.604 39.0378 10.6077 39.0382 10.611C39.0382 10.6176 39.0382 10.6242 39.0382 10.6307C39.0382 10.6439 39.0373 10.657 39.0364 10.6702C39.0359 10.6777 39.035 10.6852 39.034 10.6928C39.035 10.6857 39.0321 10.7045 39.0321 10.7064L39.1092 10.6749C39.0838 10.657 39.0599 10.6336 39.0387 10.6087C39.0204 10.587 38.9833 10.5899 38.9645 10.6087C38.9429 10.6303 38.9462 10.6608 38.9645 10.6829V10.682Z" fill="#ED976B"/>
<path d="M40.7363 11.7556C40.6414 11.7467 40.5455 11.7767 40.4708 11.835C40.452 11.8496 40.4351 11.8669 40.4248 11.8885C40.4107 11.9186 40.4111 11.9506 40.4186 11.9821C40.428 12.0229 40.444 12.0652 40.4656 12.1009C40.4896 12.1404 40.523 12.1714 40.5671 12.1869C40.6141 12.2029 40.6663 12.1925 40.709 12.1705C40.7518 12.1484 40.7861 12.1089 40.8119 12.068C40.8378 12.0272 40.8603 11.9835 40.8753 11.9393C40.8923 11.8895 40.8852 11.8378 40.8519 11.7974C40.8241 11.7636 40.7828 11.7452 40.74 11.7405C40.6498 11.7302 40.5718 11.8007 40.5347 11.8768C40.5112 11.9247 40.4971 11.9769 40.5051 12.0304C40.5121 12.077 40.5413 12.1207 40.5831 12.1423C40.6296 12.1662 40.6822 12.162 40.7231 12.1291C40.7551 12.1033 40.7724 12.0638 40.7847 12.0257C40.7917 12.0027 40.7973 11.9792 40.8035 11.9557C40.81 11.9299 40.8194 11.9031 40.8204 11.8763C40.8213 11.8472 40.8114 11.8167 40.7856 11.8002C40.7551 11.781 40.7179 11.7871 40.6916 11.8106C40.6573 11.8406 40.6423 11.8876 40.6282 11.9294C40.6254 11.9384 40.6221 11.9473 40.6188 11.9557C40.6183 11.9571 40.6122 11.9712 40.6174 11.96C40.6155 11.9642 40.6136 11.968 40.6118 11.9722C40.6099 11.9764 40.6075 11.9797 40.6052 11.9835C40.6028 11.9872 40.5972 11.9933 40.6033 11.9867C40.6005 11.99 40.5972 11.9929 40.5944 11.9961C40.5901 11.9999 40.5901 11.9999 40.5944 11.9961C40.592 11.998 40.5892 11.9994 40.5869 12.0008L40.6639 12.0323C40.6564 12.0018 40.6555 11.9722 40.6592 11.9398C40.6625 11.9116 40.6324 11.8876 40.6071 11.8876C40.576 11.8876 40.5582 11.9116 40.5549 11.9398C40.5497 11.9802 40.5535 12.021 40.5634 12.0605C40.5713 12.0939 40.6118 12.1084 40.6404 12.092C40.6963 12.0596 40.7151 11.9999 40.7349 11.9426C40.7367 11.9365 40.7391 11.9308 40.7414 11.9247C40.7424 11.9224 40.7466 11.913 40.7424 11.9219C40.7438 11.9191 40.7447 11.9163 40.7461 11.9135C40.749 11.9078 40.7518 11.9026 40.7551 11.8975C40.7565 11.8951 40.7584 11.8923 40.7602 11.89C40.7551 11.8965 40.7607 11.89 40.7607 11.89H40.7602C40.7419 11.8965 40.7283 11.8923 40.7184 11.8782C40.7184 11.8782 40.71 11.8679 40.717 11.8763C40.717 11.8759 40.7147 11.8636 40.7161 11.8749C40.7161 11.8777 40.7147 11.8848 40.7165 11.874C40.7128 11.8923 40.7076 11.9106 40.7024 11.9285C40.6944 11.9595 40.6879 11.9919 40.6752 12.022C40.6789 12.0135 40.6714 12.0286 40.67 12.0314C40.6686 12.0337 40.6587 12.0483 40.6653 12.0403C40.6616 12.045 40.6573 12.0497 40.6526 12.053C40.6611 12.0464 40.6526 12.053 40.6503 12.0535C40.647 12.0553 40.6475 12.0549 40.6522 12.0525L40.6475 12.0539C40.6371 12.053 40.6446 12.0563 40.647 12.0539C40.6451 12.0553 40.639 12.0539 40.6465 12.0549C40.6432 12.0549 40.6404 12.0535 40.6371 12.0525C40.6235 12.0492 40.6409 12.0553 40.6338 12.0511C40.6329 12.0507 40.624 12.045 40.6287 12.0483C40.6334 12.0516 40.6249 12.045 40.624 12.0445C40.6216 12.0422 40.6193 12.0398 40.6169 12.037C40.6146 12.0342 40.6146 12.0342 40.6169 12.037L40.6141 12.0328C40.6127 12.03 40.6108 12.0267 40.6094 12.0239C40.6132 12.0328 40.6089 12.0201 40.6085 12.0178C40.6061 12.0093 40.6066 12.0098 40.6066 12.0008C40.6066 11.9844 40.6089 11.9712 40.615 11.9529C40.6193 11.9393 40.6235 11.9304 40.631 11.9172C40.6348 11.9102 40.6395 11.9031 40.6437 11.8965C40.6456 11.8937 40.6479 11.8904 40.6498 11.8876C40.6456 11.8928 40.6522 11.8853 40.6536 11.8834C40.6742 11.8604 40.6893 11.851 40.7161 11.8439C40.7057 11.8467 40.7217 11.8439 40.7255 11.8439C40.7287 11.8439 40.7316 11.8439 40.7349 11.8444C40.7255 11.842 40.732 11.8444 40.7349 11.8444C40.741 11.8463 40.7471 11.8477 40.7527 11.8496C40.7438 11.8463 40.7513 11.8491 40.7527 11.85C40.7565 11.8524 40.7607 11.8547 40.7645 11.8571C40.756 11.8514 40.7692 11.8618 40.771 11.8636C40.7729 11.8655 40.7776 11.8698 40.771 11.8636C40.7724 11.866 40.7739 11.8688 40.7757 11.8712C40.7767 11.8735 40.7809 11.8787 40.7757 11.8712C40.7767 11.874 40.7776 11.8768 40.7781 11.8801C40.7786 11.8824 40.7781 11.89 40.7781 11.8928C40.7724 11.9243 40.7537 11.9548 40.7381 11.9835C40.7217 12.014 40.7071 12.038 40.6832 12.0605C40.6742 12.0685 40.6644 12.0756 40.6493 12.0826C40.6409 12.0864 40.655 12.0807 40.6461 12.084C40.6418 12.0854 40.6371 12.0868 40.6329 12.0882C40.6291 12.0892 40.6259 12.0901 40.6221 12.0906C40.6291 12.0896 40.6197 12.0906 40.6169 12.0906C40.6132 12.0906 40.6099 12.0906 40.6061 12.0906C40.5972 12.0896 40.6122 12.0925 40.6038 12.0901C40.5991 12.0887 40.5948 12.0878 40.5906 12.0864C40.5934 12.0873 40.5972 12.0901 40.5892 12.0854C40.5864 12.0835 40.5836 12.0821 40.5807 12.0803C40.5793 12.0793 40.5732 12.0741 40.5793 12.0798C40.5737 12.0751 40.5685 12.0694 40.5634 12.0638C40.5573 12.0568 40.5695 12.0737 40.5605 12.0605C40.5582 12.0568 40.5558 12.0535 40.5535 12.0497C40.5493 12.0431 40.5455 12.0361 40.5422 12.029C40.537 12.0182 40.5323 12.0055 40.5262 11.9877C40.5206 11.9708 40.514 11.9524 40.5154 11.9379C40.5159 11.9313 40.5154 11.9355 40.5154 11.9369C40.5145 11.9407 40.5197 11.929 40.5164 11.9337C40.5215 11.9261 40.5305 11.9191 40.5375 11.9139C40.561 11.8961 40.5944 11.8796 40.6244 11.8712C40.6616 11.8604 40.6921 11.8575 40.7334 11.8618C40.7616 11.8646 40.7856 11.8359 40.7856 11.8096C40.7856 11.7791 40.7616 11.7598 40.7334 11.7575L40.7363 11.7556Z" fill="#ED976B"/>
<path opacity="0.1" d="M44.7526 6.72341V7.74066C44.7526 7.83745 44.6746 7.91591 44.5788 7.91591H44.092L44.0741 8.23166L43.7622 13.838C43.7523 14.0184 43.6043 14.1599 43.4253 14.1599H40.6851V6.54816H44.5788C44.6746 6.54816 44.7526 6.62662 44.7526 6.72341Z" fill="black"/>
</svg>
